G04 #@! TF.GenerationSoftware,KiCad,Pcbnew,5.1.5+dfsg1-2build2*
G04 #@! TF.CreationDate,2022-11-08T12:44:18-05:00*
G04 #@! TF.ProjectId,si5351,73693533-3531-42e6-9b69-6361645f7063,rev?*
G04 #@! TF.SameCoordinates,Original*
G04 #@! TF.FileFunction,Paste,Top*
G04 #@! TF.FilePolarity,Positive*
%FSLAX46Y46*%
G04 Gerber Fmt 4.6, Leading zero omitted, Abs format (unit mm)*
G04 Created by KiCad (PCBNEW 5.1.5+dfsg1-2build2) date 2022-11-08 12:44:18*
%MOMM*%
%LPD*%
G04 APERTURE LIST*
%ADD10R,1.400000X0.300000*%
%ADD11R,1.200000X1.400000*%
%ADD12C,0.100000*%
G04 APERTURE END LIST*
D10*
X185900000Y-104500000D03*
X185900000Y-105000000D03*
X185900000Y-105500000D03*
X185900000Y-106000000D03*
X185900000Y-106500000D03*
X181500000Y-106500000D03*
X181500000Y-106000000D03*
X181500000Y-105500000D03*
X181500000Y-105000000D03*
X181500000Y-104500000D03*
D11*
X176150000Y-106600000D03*
X176150000Y-104400000D03*
X177850000Y-104400000D03*
X177850000Y-106600000D03*
D12*
G36*
X185899504Y-98626204D02*
G01*
X185923773Y-98629804D01*
X185947571Y-98635765D01*
X185970671Y-98644030D01*
X185992849Y-98654520D01*
X186013893Y-98667133D01*
X186033598Y-98681747D01*
X186051777Y-98698223D01*
X186068253Y-98716402D01*
X186082867Y-98736107D01*
X186095480Y-98757151D01*
X186105970Y-98779329D01*
X186114235Y-98802429D01*
X186120196Y-98826227D01*
X186123796Y-98850496D01*
X186125000Y-98875000D01*
X186125000Y-100125000D01*
X186123796Y-100149504D01*
X186120196Y-100173773D01*
X186114235Y-100197571D01*
X186105970Y-100220671D01*
X186095480Y-100242849D01*
X186082867Y-100263893D01*
X186068253Y-100283598D01*
X186051777Y-100301777D01*
X186033598Y-100318253D01*
X186013893Y-100332867D01*
X185992849Y-100345480D01*
X185970671Y-100355970D01*
X185947571Y-100364235D01*
X185923773Y-100370196D01*
X185899504Y-100373796D01*
X185875000Y-100375000D01*
X185125000Y-100375000D01*
X185100496Y-100373796D01*
X185076227Y-100370196D01*
X185052429Y-100364235D01*
X185029329Y-100355970D01*
X185007151Y-100345480D01*
X184986107Y-100332867D01*
X184966402Y-100318253D01*
X184948223Y-100301777D01*
X184931747Y-100283598D01*
X184917133Y-100263893D01*
X184904520Y-100242849D01*
X184894030Y-100220671D01*
X184885765Y-100197571D01*
X184879804Y-100173773D01*
X184876204Y-100149504D01*
X184875000Y-100125000D01*
X184875000Y-98875000D01*
X184876204Y-98850496D01*
X184879804Y-98826227D01*
X184885765Y-98802429D01*
X184894030Y-98779329D01*
X184904520Y-98757151D01*
X184917133Y-98736107D01*
X184931747Y-98716402D01*
X184948223Y-98698223D01*
X184966402Y-98681747D01*
X184986107Y-98667133D01*
X185007151Y-98654520D01*
X185029329Y-98644030D01*
X185052429Y-98635765D01*
X185076227Y-98629804D01*
X185100496Y-98626204D01*
X185125000Y-98625000D01*
X185875000Y-98625000D01*
X185899504Y-98626204D01*
G37*
G36*
X183099504Y-98626204D02*
G01*
X183123773Y-98629804D01*
X183147571Y-98635765D01*
X183170671Y-98644030D01*
X183192849Y-98654520D01*
X183213893Y-98667133D01*
X183233598Y-98681747D01*
X183251777Y-98698223D01*
X183268253Y-98716402D01*
X183282867Y-98736107D01*
X183295480Y-98757151D01*
X183305970Y-98779329D01*
X183314235Y-98802429D01*
X183320196Y-98826227D01*
X183323796Y-98850496D01*
X183325000Y-98875000D01*
X183325000Y-100125000D01*
X183323796Y-100149504D01*
X183320196Y-100173773D01*
X183314235Y-100197571D01*
X183305970Y-100220671D01*
X183295480Y-100242849D01*
X183282867Y-100263893D01*
X183268253Y-100283598D01*
X183251777Y-100301777D01*
X183233598Y-100318253D01*
X183213893Y-100332867D01*
X183192849Y-100345480D01*
X183170671Y-100355970D01*
X183147571Y-100364235D01*
X183123773Y-100370196D01*
X183099504Y-100373796D01*
X183075000Y-100375000D01*
X182325000Y-100375000D01*
X182300496Y-100373796D01*
X182276227Y-100370196D01*
X182252429Y-100364235D01*
X182229329Y-100355970D01*
X182207151Y-100345480D01*
X182186107Y-100332867D01*
X182166402Y-100318253D01*
X182148223Y-100301777D01*
X182131747Y-100283598D01*
X182117133Y-100263893D01*
X182104520Y-100242849D01*
X182094030Y-100220671D01*
X182085765Y-100197571D01*
X182079804Y-100173773D01*
X182076204Y-100149504D01*
X182075000Y-100125000D01*
X182075000Y-98875000D01*
X182076204Y-98850496D01*
X182079804Y-98826227D01*
X182085765Y-98802429D01*
X182094030Y-98779329D01*
X182104520Y-98757151D01*
X182117133Y-98736107D01*
X182131747Y-98716402D01*
X182148223Y-98698223D01*
X182166402Y-98681747D01*
X182186107Y-98667133D01*
X182207151Y-98654520D01*
X182229329Y-98644030D01*
X182252429Y-98635765D01*
X182276227Y-98629804D01*
X182300496Y-98626204D01*
X182325000Y-98625000D01*
X183075000Y-98625000D01*
X183099504Y-98626204D01*
G37*
G36*
X185899504Y-96003204D02*
G01*
X185923773Y-96006804D01*
X185947571Y-96012765D01*
X185970671Y-96021030D01*
X185992849Y-96031520D01*
X186013893Y-96044133D01*
X186033598Y-96058747D01*
X186051777Y-96075223D01*
X186068253Y-96093402D01*
X186082867Y-96113107D01*
X186095480Y-96134151D01*
X186105970Y-96156329D01*
X186114235Y-96179429D01*
X186120196Y-96203227D01*
X186123796Y-96227496D01*
X186125000Y-96252000D01*
X186125000Y-97502000D01*
X186123796Y-97526504D01*
X186120196Y-97550773D01*
X186114235Y-97574571D01*
X186105970Y-97597671D01*
X186095480Y-97619849D01*
X186082867Y-97640893D01*
X186068253Y-97660598D01*
X186051777Y-97678777D01*
X186033598Y-97695253D01*
X186013893Y-97709867D01*
X185992849Y-97722480D01*
X185970671Y-97732970D01*
X185947571Y-97741235D01*
X185923773Y-97747196D01*
X185899504Y-97750796D01*
X185875000Y-97752000D01*
X185125000Y-97752000D01*
X185100496Y-97750796D01*
X185076227Y-97747196D01*
X185052429Y-97741235D01*
X185029329Y-97732970D01*
X185007151Y-97722480D01*
X184986107Y-97709867D01*
X184966402Y-97695253D01*
X184948223Y-97678777D01*
X184931747Y-97660598D01*
X184917133Y-97640893D01*
X184904520Y-97619849D01*
X184894030Y-97597671D01*
X184885765Y-97574571D01*
X184879804Y-97550773D01*
X184876204Y-97526504D01*
X184875000Y-97502000D01*
X184875000Y-96252000D01*
X184876204Y-96227496D01*
X184879804Y-96203227D01*
X184885765Y-96179429D01*
X184894030Y-96156329D01*
X184904520Y-96134151D01*
X184917133Y-96113107D01*
X184931747Y-96093402D01*
X184948223Y-96075223D01*
X184966402Y-96058747D01*
X184986107Y-96044133D01*
X185007151Y-96031520D01*
X185029329Y-96021030D01*
X185052429Y-96012765D01*
X185076227Y-96006804D01*
X185100496Y-96003204D01*
X185125000Y-96002000D01*
X185875000Y-96002000D01*
X185899504Y-96003204D01*
G37*
G36*
X183099504Y-96003204D02*
G01*
X183123773Y-96006804D01*
X183147571Y-96012765D01*
X183170671Y-96021030D01*
X183192849Y-96031520D01*
X183213893Y-96044133D01*
X183233598Y-96058747D01*
X183251777Y-96075223D01*
X183268253Y-96093402D01*
X183282867Y-96113107D01*
X183295480Y-96134151D01*
X183305970Y-96156329D01*
X183314235Y-96179429D01*
X183320196Y-96203227D01*
X183323796Y-96227496D01*
X183325000Y-96252000D01*
X183325000Y-97502000D01*
X183323796Y-97526504D01*
X183320196Y-97550773D01*
X183314235Y-97574571D01*
X183305970Y-97597671D01*
X183295480Y-97619849D01*
X183282867Y-97640893D01*
X183268253Y-97660598D01*
X183251777Y-97678777D01*
X183233598Y-97695253D01*
X183213893Y-97709867D01*
X183192849Y-97722480D01*
X183170671Y-97732970D01*
X183147571Y-97741235D01*
X183123773Y-97747196D01*
X183099504Y-97750796D01*
X183075000Y-97752000D01*
X182325000Y-97752000D01*
X182300496Y-97750796D01*
X182276227Y-97747196D01*
X182252429Y-97741235D01*
X182229329Y-97732970D01*
X182207151Y-97722480D01*
X182186107Y-97709867D01*
X182166402Y-97695253D01*
X182148223Y-97678777D01*
X182131747Y-97660598D01*
X182117133Y-97640893D01*
X182104520Y-97619849D01*
X182094030Y-97597671D01*
X182085765Y-97574571D01*
X182079804Y-97550773D01*
X182076204Y-97526504D01*
X182075000Y-97502000D01*
X182075000Y-96252000D01*
X182076204Y-96227496D01*
X182079804Y-96203227D01*
X182085765Y-96179429D01*
X182094030Y-96156329D01*
X182104520Y-96134151D01*
X182117133Y-96113107D01*
X182131747Y-96093402D01*
X182148223Y-96075223D01*
X182166402Y-96058747D01*
X182186107Y-96044133D01*
X182207151Y-96031520D01*
X182229329Y-96021030D01*
X182252429Y-96012765D01*
X182276227Y-96006804D01*
X182300496Y-96003204D01*
X182325000Y-96002000D01*
X183075000Y-96002000D01*
X183099504Y-96003204D01*
G37*
M02*
