G04 #@! TF.GenerationSoftware,KiCad,Pcbnew,5.1.5+dfsg1-2build2*
G04 #@! TF.CreationDate,2022-11-08T12:44:18-05:00*
G04 #@! TF.ProjectId,si5351,73693533-3531-42e6-9b69-6361645f7063,rev?*
G04 #@! TF.SameCoordinates,Original*
G04 #@! TF.FileFunction,Legend,Top*
G04 #@! TF.FilePolarity,Positive*
%FSLAX46Y46*%
G04 Gerber Fmt 4.6, Leading zero omitted, Abs format (unit mm)*
G04 Created by KiCad (PCBNEW 5.1.5+dfsg1-2build2) date 2022-11-08 12:44:18*
%MOMM*%
%LPD*%
G04 APERTURE LIST*
%ADD10C,0.150000*%
%ADD11C,0.120000*%
%ADD12C,0.124968*%
%ADD13R,1.502000X0.402000*%
%ADD14O,1.802000X1.802000*%
%ADD15R,1.802000X1.802000*%
%ADD16R,1.302000X1.502000*%
%ADD17C,0.100000*%
G04 APERTURE END LIST*
D10*
X182025000Y-104050000D02*
X180800000Y-104050000D01*
X182025000Y-107175000D02*
X185375000Y-107175000D01*
X182025000Y-103825000D02*
X185375000Y-103825000D01*
X182025000Y-107175000D02*
X182025000Y-106875000D01*
X185375000Y-107175000D02*
X185375000Y-106875000D01*
X185375000Y-103825000D02*
X185375000Y-104125000D01*
X182025000Y-103825000D02*
X182025000Y-104050000D01*
D11*
X188670000Y-90670000D02*
X190000000Y-90670000D01*
X188670000Y-92000000D02*
X188670000Y-90670000D01*
X188670000Y-93270000D02*
X191330000Y-93270000D01*
X191330000Y-93270000D02*
X191330000Y-108570000D01*
X188670000Y-93270000D02*
X188670000Y-108570000D01*
X188670000Y-108570000D02*
X191330000Y-108570000D01*
X178650000Y-107500000D02*
X178650000Y-103500000D01*
X175350000Y-107500000D02*
X178650000Y-107500000D01*
X183497936Y-100410000D02*
X184702064Y-100410000D01*
X183497936Y-98590000D02*
X184702064Y-98590000D01*
X183497936Y-97787000D02*
X184702064Y-97787000D01*
X183497936Y-95967000D02*
X184702064Y-95967000D01*
D10*
X182938095Y-102352380D02*
X182938095Y-103161904D01*
X182985714Y-103257142D01*
X183033333Y-103304761D01*
X183128571Y-103352380D01*
X183319047Y-103352380D01*
X183414285Y-103304761D01*
X183461904Y-103257142D01*
X183509523Y-103161904D01*
X183509523Y-102352380D01*
X184509523Y-103352380D02*
X183938095Y-103352380D01*
X184223809Y-103352380D02*
X184223809Y-102352380D01*
X184128571Y-102495238D01*
X184033333Y-102590476D01*
X183938095Y-102638095D01*
X189666666Y-89122380D02*
X189666666Y-89836666D01*
X189619047Y-89979523D01*
X189523809Y-90074761D01*
X189380952Y-90122380D01*
X189285714Y-90122380D01*
X190666666Y-90122380D02*
X190095238Y-90122380D01*
X190380952Y-90122380D02*
X190380952Y-89122380D01*
X190285714Y-89265238D01*
X190190476Y-89360476D01*
X190095238Y-89408095D01*
X174526190Y-105976190D02*
X175002380Y-105976190D01*
X174002380Y-106309523D02*
X174526190Y-105976190D01*
X174002380Y-105642857D01*
X175002380Y-104785714D02*
X175002380Y-105357142D01*
X175002380Y-105071428D02*
X174002380Y-105071428D01*
X174145238Y-105166666D01*
X174240476Y-105261904D01*
X174288095Y-105357142D01*
D12*
X184143688Y-97849132D02*
X183977064Y-97611098D01*
X183858046Y-97849132D02*
X183858046Y-97349260D01*
X184048474Y-97349260D01*
X184096081Y-97373064D01*
X184119884Y-97396867D01*
X184143688Y-97444474D01*
X184143688Y-97515884D01*
X184119884Y-97563491D01*
X184096081Y-97587294D01*
X184048474Y-97611098D01*
X183858046Y-97611098D01*
X184334115Y-97396867D02*
X184357918Y-97373064D01*
X184405525Y-97349260D01*
X184524542Y-97349260D01*
X184572149Y-97373064D01*
X184595953Y-97396867D01*
X184619756Y-97444474D01*
X184619756Y-97492081D01*
X184595953Y-97563491D01*
X184310312Y-97849132D01*
X184619756Y-97849132D01*
X184143688Y-95226132D02*
X183977064Y-94988098D01*
X183858046Y-95226132D02*
X183858046Y-94726260D01*
X184048474Y-94726260D01*
X184096081Y-94750064D01*
X184119884Y-94773867D01*
X184143688Y-94821474D01*
X184143688Y-94892884D01*
X184119884Y-94940491D01*
X184096081Y-94964294D01*
X184048474Y-94988098D01*
X183858046Y-94988098D01*
X184619756Y-95226132D02*
X184334115Y-95226132D01*
X184476936Y-95226132D02*
X184476936Y-94726260D01*
X184429329Y-94797670D01*
X184381722Y-94845277D01*
X184334115Y-94869081D01*
%LPC*%
D13*
X185900000Y-104500000D03*
X185900000Y-105000000D03*
X185900000Y-105500000D03*
X185900000Y-106000000D03*
X185900000Y-106500000D03*
X181500000Y-106500000D03*
X181500000Y-106000000D03*
X181500000Y-105500000D03*
X181500000Y-105000000D03*
X181500000Y-104500000D03*
D14*
X190000000Y-107240000D03*
X190000000Y-104700000D03*
X190000000Y-102160000D03*
X190000000Y-99620000D03*
X190000000Y-97080000D03*
X190000000Y-94540000D03*
D15*
X190000000Y-92000000D03*
D16*
X176150000Y-106600000D03*
X176150000Y-104400000D03*
X177850000Y-104400000D03*
X177850000Y-106600000D03*
D17*
G36*
X185932104Y-98575302D02*
G01*
X185958352Y-98579196D01*
X185984093Y-98585643D01*
X186009078Y-98594583D01*
X186033066Y-98605928D01*
X186055826Y-98619571D01*
X186077140Y-98635378D01*
X186096802Y-98653198D01*
X186114622Y-98672860D01*
X186130429Y-98694174D01*
X186144072Y-98716934D01*
X186155417Y-98740922D01*
X186164357Y-98765907D01*
X186170804Y-98791648D01*
X186174698Y-98817896D01*
X186176000Y-98844400D01*
X186176000Y-100155600D01*
X186174698Y-100182104D01*
X186170804Y-100208352D01*
X186164357Y-100234093D01*
X186155417Y-100259078D01*
X186144072Y-100283066D01*
X186130429Y-100305826D01*
X186114622Y-100327140D01*
X186096802Y-100346802D01*
X186077140Y-100364622D01*
X186055826Y-100380429D01*
X186033066Y-100394072D01*
X186009078Y-100405417D01*
X185984093Y-100414357D01*
X185958352Y-100420804D01*
X185932104Y-100424698D01*
X185905600Y-100426000D01*
X185094400Y-100426000D01*
X185067896Y-100424698D01*
X185041648Y-100420804D01*
X185015907Y-100414357D01*
X184990922Y-100405417D01*
X184966934Y-100394072D01*
X184944174Y-100380429D01*
X184922860Y-100364622D01*
X184903198Y-100346802D01*
X184885378Y-100327140D01*
X184869571Y-100305826D01*
X184855928Y-100283066D01*
X184844583Y-100259078D01*
X184835643Y-100234093D01*
X184829196Y-100208352D01*
X184825302Y-100182104D01*
X184824000Y-100155600D01*
X184824000Y-98844400D01*
X184825302Y-98817896D01*
X184829196Y-98791648D01*
X184835643Y-98765907D01*
X184844583Y-98740922D01*
X184855928Y-98716934D01*
X184869571Y-98694174D01*
X184885378Y-98672860D01*
X184903198Y-98653198D01*
X184922860Y-98635378D01*
X184944174Y-98619571D01*
X184966934Y-98605928D01*
X184990922Y-98594583D01*
X185015907Y-98585643D01*
X185041648Y-98579196D01*
X185067896Y-98575302D01*
X185094400Y-98574000D01*
X185905600Y-98574000D01*
X185932104Y-98575302D01*
G37*
G36*
X183132104Y-98575302D02*
G01*
X183158352Y-98579196D01*
X183184093Y-98585643D01*
X183209078Y-98594583D01*
X183233066Y-98605928D01*
X183255826Y-98619571D01*
X183277140Y-98635378D01*
X183296802Y-98653198D01*
X183314622Y-98672860D01*
X183330429Y-98694174D01*
X183344072Y-98716934D01*
X183355417Y-98740922D01*
X183364357Y-98765907D01*
X183370804Y-98791648D01*
X183374698Y-98817896D01*
X183376000Y-98844400D01*
X183376000Y-100155600D01*
X183374698Y-100182104D01*
X183370804Y-100208352D01*
X183364357Y-100234093D01*
X183355417Y-100259078D01*
X183344072Y-100283066D01*
X183330429Y-100305826D01*
X183314622Y-100327140D01*
X183296802Y-100346802D01*
X183277140Y-100364622D01*
X183255826Y-100380429D01*
X183233066Y-100394072D01*
X183209078Y-100405417D01*
X183184093Y-100414357D01*
X183158352Y-100420804D01*
X183132104Y-100424698D01*
X183105600Y-100426000D01*
X182294400Y-100426000D01*
X182267896Y-100424698D01*
X182241648Y-100420804D01*
X182215907Y-100414357D01*
X182190922Y-100405417D01*
X182166934Y-100394072D01*
X182144174Y-100380429D01*
X182122860Y-100364622D01*
X182103198Y-100346802D01*
X182085378Y-100327140D01*
X182069571Y-100305826D01*
X182055928Y-100283066D01*
X182044583Y-100259078D01*
X182035643Y-100234093D01*
X182029196Y-100208352D01*
X182025302Y-100182104D01*
X182024000Y-100155600D01*
X182024000Y-98844400D01*
X182025302Y-98817896D01*
X182029196Y-98791648D01*
X182035643Y-98765907D01*
X182044583Y-98740922D01*
X182055928Y-98716934D01*
X182069571Y-98694174D01*
X182085378Y-98672860D01*
X182103198Y-98653198D01*
X182122860Y-98635378D01*
X182144174Y-98619571D01*
X182166934Y-98605928D01*
X182190922Y-98594583D01*
X182215907Y-98585643D01*
X182241648Y-98579196D01*
X182267896Y-98575302D01*
X182294400Y-98574000D01*
X183105600Y-98574000D01*
X183132104Y-98575302D01*
G37*
G36*
X185932104Y-95952302D02*
G01*
X185958352Y-95956196D01*
X185984093Y-95962643D01*
X186009078Y-95971583D01*
X186033066Y-95982928D01*
X186055826Y-95996571D01*
X186077140Y-96012378D01*
X186096802Y-96030198D01*
X186114622Y-96049860D01*
X186130429Y-96071174D01*
X186144072Y-96093934D01*
X186155417Y-96117922D01*
X186164357Y-96142907D01*
X186170804Y-96168648D01*
X186174698Y-96194896D01*
X186176000Y-96221400D01*
X186176000Y-97532600D01*
X186174698Y-97559104D01*
X186170804Y-97585352D01*
X186164357Y-97611093D01*
X186155417Y-97636078D01*
X186144072Y-97660066D01*
X186130429Y-97682826D01*
X186114622Y-97704140D01*
X186096802Y-97723802D01*
X186077140Y-97741622D01*
X186055826Y-97757429D01*
X186033066Y-97771072D01*
X186009078Y-97782417D01*
X185984093Y-97791357D01*
X185958352Y-97797804D01*
X185932104Y-97801698D01*
X185905600Y-97803000D01*
X185094400Y-97803000D01*
X185067896Y-97801698D01*
X185041648Y-97797804D01*
X185015907Y-97791357D01*
X184990922Y-97782417D01*
X184966934Y-97771072D01*
X184944174Y-97757429D01*
X184922860Y-97741622D01*
X184903198Y-97723802D01*
X184885378Y-97704140D01*
X184869571Y-97682826D01*
X184855928Y-97660066D01*
X184844583Y-97636078D01*
X184835643Y-97611093D01*
X184829196Y-97585352D01*
X184825302Y-97559104D01*
X184824000Y-97532600D01*
X184824000Y-96221400D01*
X184825302Y-96194896D01*
X184829196Y-96168648D01*
X184835643Y-96142907D01*
X184844583Y-96117922D01*
X184855928Y-96093934D01*
X184869571Y-96071174D01*
X184885378Y-96049860D01*
X184903198Y-96030198D01*
X184922860Y-96012378D01*
X184944174Y-95996571D01*
X184966934Y-95982928D01*
X184990922Y-95971583D01*
X185015907Y-95962643D01*
X185041648Y-95956196D01*
X185067896Y-95952302D01*
X185094400Y-95951000D01*
X185905600Y-95951000D01*
X185932104Y-95952302D01*
G37*
G36*
X183132104Y-95952302D02*
G01*
X183158352Y-95956196D01*
X183184093Y-95962643D01*
X183209078Y-95971583D01*
X183233066Y-95982928D01*
X183255826Y-95996571D01*
X183277140Y-96012378D01*
X183296802Y-96030198D01*
X183314622Y-96049860D01*
X183330429Y-96071174D01*
X183344072Y-96093934D01*
X183355417Y-96117922D01*
X183364357Y-96142907D01*
X183370804Y-96168648D01*
X183374698Y-96194896D01*
X183376000Y-96221400D01*
X183376000Y-97532600D01*
X183374698Y-97559104D01*
X183370804Y-97585352D01*
X183364357Y-97611093D01*
X183355417Y-97636078D01*
X183344072Y-97660066D01*
X183330429Y-97682826D01*
X183314622Y-97704140D01*
X183296802Y-97723802D01*
X183277140Y-97741622D01*
X183255826Y-97757429D01*
X183233066Y-97771072D01*
X183209078Y-97782417D01*
X183184093Y-97791357D01*
X183158352Y-97797804D01*
X183132104Y-97801698D01*
X183105600Y-97803000D01*
X182294400Y-97803000D01*
X182267896Y-97801698D01*
X182241648Y-97797804D01*
X182215907Y-97791357D01*
X182190922Y-97782417D01*
X182166934Y-97771072D01*
X182144174Y-97757429D01*
X182122860Y-97741622D01*
X182103198Y-97723802D01*
X182085378Y-97704140D01*
X182069571Y-97682826D01*
X182055928Y-97660066D01*
X182044583Y-97636078D01*
X182035643Y-97611093D01*
X182029196Y-97585352D01*
X182025302Y-97559104D01*
X182024000Y-97532600D01*
X182024000Y-96221400D01*
X182025302Y-96194896D01*
X182029196Y-96168648D01*
X182035643Y-96142907D01*
X182044583Y-96117922D01*
X182055928Y-96093934D01*
X182069571Y-96071174D01*
X182085378Y-96049860D01*
X182103198Y-96030198D01*
X182122860Y-96012378D01*
X182144174Y-95996571D01*
X182166934Y-95982928D01*
X182190922Y-95971583D01*
X182215907Y-95962643D01*
X182241648Y-95956196D01*
X182267896Y-95952302D01*
X182294400Y-95951000D01*
X183105600Y-95951000D01*
X183132104Y-95952302D01*
G37*
M02*
