G04 #@! TF.GenerationSoftware,KiCad,Pcbnew,5.1.5+dfsg1-2build2*
G04 #@! TF.CreationDate,2022-11-08T12:44:18-05:00*
G04 #@! TF.ProjectId,si5351,73693533-3531-42e6-9b69-6361645f7063,rev?*
G04 #@! TF.SameCoordinates,Original*
G04 #@! TF.FileFunction,Copper,L1,Top*
G04 #@! TF.FilePolarity,Positive*
%FSLAX46Y46*%
G04 Gerber Fmt 4.6, Leading zero omitted, Abs format (unit mm)*
G04 Created by KiCad (PCBNEW 5.1.5+dfsg1-2build2) date 2022-11-08 12:44:18*
%MOMM*%
%LPD*%
G04 APERTURE LIST*
%ADD10R,1.400000X0.300000*%
%ADD11O,1.700000X1.700000*%
%ADD12R,1.700000X1.700000*%
%ADD13R,1.200000X1.400000*%
%ADD14C,0.100000*%
%ADD15C,0.500000*%
%ADD16C,0.250000*%
%ADD17C,0.254000*%
G04 APERTURE END LIST*
D10*
X185900000Y-104500000D03*
X185900000Y-105000000D03*
X185900000Y-105500000D03*
X185900000Y-106000000D03*
X185900000Y-106500000D03*
X181500000Y-106500000D03*
X181500000Y-106000000D03*
X181500000Y-105500000D03*
X181500000Y-105000000D03*
X181500000Y-104500000D03*
D11*
X190000000Y-107240000D03*
X190000000Y-104700000D03*
X190000000Y-102160000D03*
X190000000Y-99620000D03*
X190000000Y-97080000D03*
X190000000Y-94540000D03*
D12*
X190000000Y-92000000D03*
D13*
X176150000Y-106600000D03*
X176150000Y-104400000D03*
X177850000Y-104400000D03*
X177850000Y-106600000D03*
G04 #@! TA.AperFunction,SMDPad,CuDef*
D14*
G36*
X185899504Y-98626204D02*
G01*
X185923773Y-98629804D01*
X185947571Y-98635765D01*
X185970671Y-98644030D01*
X185992849Y-98654520D01*
X186013893Y-98667133D01*
X186033598Y-98681747D01*
X186051777Y-98698223D01*
X186068253Y-98716402D01*
X186082867Y-98736107D01*
X186095480Y-98757151D01*
X186105970Y-98779329D01*
X186114235Y-98802429D01*
X186120196Y-98826227D01*
X186123796Y-98850496D01*
X186125000Y-98875000D01*
X186125000Y-100125000D01*
X186123796Y-100149504D01*
X186120196Y-100173773D01*
X186114235Y-100197571D01*
X186105970Y-100220671D01*
X186095480Y-100242849D01*
X186082867Y-100263893D01*
X186068253Y-100283598D01*
X186051777Y-100301777D01*
X186033598Y-100318253D01*
X186013893Y-100332867D01*
X185992849Y-100345480D01*
X185970671Y-100355970D01*
X185947571Y-100364235D01*
X185923773Y-100370196D01*
X185899504Y-100373796D01*
X185875000Y-100375000D01*
X185125000Y-100375000D01*
X185100496Y-100373796D01*
X185076227Y-100370196D01*
X185052429Y-100364235D01*
X185029329Y-100355970D01*
X185007151Y-100345480D01*
X184986107Y-100332867D01*
X184966402Y-100318253D01*
X184948223Y-100301777D01*
X184931747Y-100283598D01*
X184917133Y-100263893D01*
X184904520Y-100242849D01*
X184894030Y-100220671D01*
X184885765Y-100197571D01*
X184879804Y-100173773D01*
X184876204Y-100149504D01*
X184875000Y-100125000D01*
X184875000Y-98875000D01*
X184876204Y-98850496D01*
X184879804Y-98826227D01*
X184885765Y-98802429D01*
X184894030Y-98779329D01*
X184904520Y-98757151D01*
X184917133Y-98736107D01*
X184931747Y-98716402D01*
X184948223Y-98698223D01*
X184966402Y-98681747D01*
X184986107Y-98667133D01*
X185007151Y-98654520D01*
X185029329Y-98644030D01*
X185052429Y-98635765D01*
X185076227Y-98629804D01*
X185100496Y-98626204D01*
X185125000Y-98625000D01*
X185875000Y-98625000D01*
X185899504Y-98626204D01*
G37*
G04 #@! TD.AperFunction*
G04 #@! TA.AperFunction,SMDPad,CuDef*
G36*
X183099504Y-98626204D02*
G01*
X183123773Y-98629804D01*
X183147571Y-98635765D01*
X183170671Y-98644030D01*
X183192849Y-98654520D01*
X183213893Y-98667133D01*
X183233598Y-98681747D01*
X183251777Y-98698223D01*
X183268253Y-98716402D01*
X183282867Y-98736107D01*
X183295480Y-98757151D01*
X183305970Y-98779329D01*
X183314235Y-98802429D01*
X183320196Y-98826227D01*
X183323796Y-98850496D01*
X183325000Y-98875000D01*
X183325000Y-100125000D01*
X183323796Y-100149504D01*
X183320196Y-100173773D01*
X183314235Y-100197571D01*
X183305970Y-100220671D01*
X183295480Y-100242849D01*
X183282867Y-100263893D01*
X183268253Y-100283598D01*
X183251777Y-100301777D01*
X183233598Y-100318253D01*
X183213893Y-100332867D01*
X183192849Y-100345480D01*
X183170671Y-100355970D01*
X183147571Y-100364235D01*
X183123773Y-100370196D01*
X183099504Y-100373796D01*
X183075000Y-100375000D01*
X182325000Y-100375000D01*
X182300496Y-100373796D01*
X182276227Y-100370196D01*
X182252429Y-100364235D01*
X182229329Y-100355970D01*
X182207151Y-100345480D01*
X182186107Y-100332867D01*
X182166402Y-100318253D01*
X182148223Y-100301777D01*
X182131747Y-100283598D01*
X182117133Y-100263893D01*
X182104520Y-100242849D01*
X182094030Y-100220671D01*
X182085765Y-100197571D01*
X182079804Y-100173773D01*
X182076204Y-100149504D01*
X182075000Y-100125000D01*
X182075000Y-98875000D01*
X182076204Y-98850496D01*
X182079804Y-98826227D01*
X182085765Y-98802429D01*
X182094030Y-98779329D01*
X182104520Y-98757151D01*
X182117133Y-98736107D01*
X182131747Y-98716402D01*
X182148223Y-98698223D01*
X182166402Y-98681747D01*
X182186107Y-98667133D01*
X182207151Y-98654520D01*
X182229329Y-98644030D01*
X182252429Y-98635765D01*
X182276227Y-98629804D01*
X182300496Y-98626204D01*
X182325000Y-98625000D01*
X183075000Y-98625000D01*
X183099504Y-98626204D01*
G37*
G04 #@! TD.AperFunction*
G04 #@! TA.AperFunction,SMDPad,CuDef*
G36*
X185899504Y-96003204D02*
G01*
X185923773Y-96006804D01*
X185947571Y-96012765D01*
X185970671Y-96021030D01*
X185992849Y-96031520D01*
X186013893Y-96044133D01*
X186033598Y-96058747D01*
X186051777Y-96075223D01*
X186068253Y-96093402D01*
X186082867Y-96113107D01*
X186095480Y-96134151D01*
X186105970Y-96156329D01*
X186114235Y-96179429D01*
X186120196Y-96203227D01*
X186123796Y-96227496D01*
X186125000Y-96252000D01*
X186125000Y-97502000D01*
X186123796Y-97526504D01*
X186120196Y-97550773D01*
X186114235Y-97574571D01*
X186105970Y-97597671D01*
X186095480Y-97619849D01*
X186082867Y-97640893D01*
X186068253Y-97660598D01*
X186051777Y-97678777D01*
X186033598Y-97695253D01*
X186013893Y-97709867D01*
X185992849Y-97722480D01*
X185970671Y-97732970D01*
X185947571Y-97741235D01*
X185923773Y-97747196D01*
X185899504Y-97750796D01*
X185875000Y-97752000D01*
X185125000Y-97752000D01*
X185100496Y-97750796D01*
X185076227Y-97747196D01*
X185052429Y-97741235D01*
X185029329Y-97732970D01*
X185007151Y-97722480D01*
X184986107Y-97709867D01*
X184966402Y-97695253D01*
X184948223Y-97678777D01*
X184931747Y-97660598D01*
X184917133Y-97640893D01*
X184904520Y-97619849D01*
X184894030Y-97597671D01*
X184885765Y-97574571D01*
X184879804Y-97550773D01*
X184876204Y-97526504D01*
X184875000Y-97502000D01*
X184875000Y-96252000D01*
X184876204Y-96227496D01*
X184879804Y-96203227D01*
X184885765Y-96179429D01*
X184894030Y-96156329D01*
X184904520Y-96134151D01*
X184917133Y-96113107D01*
X184931747Y-96093402D01*
X184948223Y-96075223D01*
X184966402Y-96058747D01*
X184986107Y-96044133D01*
X185007151Y-96031520D01*
X185029329Y-96021030D01*
X185052429Y-96012765D01*
X185076227Y-96006804D01*
X185100496Y-96003204D01*
X185125000Y-96002000D01*
X185875000Y-96002000D01*
X185899504Y-96003204D01*
G37*
G04 #@! TD.AperFunction*
G04 #@! TA.AperFunction,SMDPad,CuDef*
G36*
X183099504Y-96003204D02*
G01*
X183123773Y-96006804D01*
X183147571Y-96012765D01*
X183170671Y-96021030D01*
X183192849Y-96031520D01*
X183213893Y-96044133D01*
X183233598Y-96058747D01*
X183251777Y-96075223D01*
X183268253Y-96093402D01*
X183282867Y-96113107D01*
X183295480Y-96134151D01*
X183305970Y-96156329D01*
X183314235Y-96179429D01*
X183320196Y-96203227D01*
X183323796Y-96227496D01*
X183325000Y-96252000D01*
X183325000Y-97502000D01*
X183323796Y-97526504D01*
X183320196Y-97550773D01*
X183314235Y-97574571D01*
X183305970Y-97597671D01*
X183295480Y-97619849D01*
X183282867Y-97640893D01*
X183268253Y-97660598D01*
X183251777Y-97678777D01*
X183233598Y-97695253D01*
X183213893Y-97709867D01*
X183192849Y-97722480D01*
X183170671Y-97732970D01*
X183147571Y-97741235D01*
X183123773Y-97747196D01*
X183099504Y-97750796D01*
X183075000Y-97752000D01*
X182325000Y-97752000D01*
X182300496Y-97750796D01*
X182276227Y-97747196D01*
X182252429Y-97741235D01*
X182229329Y-97732970D01*
X182207151Y-97722480D01*
X182186107Y-97709867D01*
X182166402Y-97695253D01*
X182148223Y-97678777D01*
X182131747Y-97660598D01*
X182117133Y-97640893D01*
X182104520Y-97619849D01*
X182094030Y-97597671D01*
X182085765Y-97574571D01*
X182079804Y-97550773D01*
X182076204Y-97526504D01*
X182075000Y-97502000D01*
X182075000Y-96252000D01*
X182076204Y-96227496D01*
X182079804Y-96203227D01*
X182085765Y-96179429D01*
X182094030Y-96156329D01*
X182104520Y-96134151D01*
X182117133Y-96113107D01*
X182131747Y-96093402D01*
X182148223Y-96075223D01*
X182166402Y-96058747D01*
X182186107Y-96044133D01*
X182207151Y-96031520D01*
X182229329Y-96021030D01*
X182252429Y-96012765D01*
X182276227Y-96006804D01*
X182300496Y-96003204D01*
X182325000Y-96002000D01*
X183075000Y-96002000D01*
X183099504Y-96003204D01*
G37*
G04 #@! TD.AperFunction*
D15*
X190000000Y-102160000D02*
X186840000Y-102160000D01*
D16*
X185900000Y-103100000D02*
X185900000Y-104500000D01*
X186840000Y-102160000D02*
X185900000Y-103100000D01*
X189700000Y-105000000D02*
X190000000Y-104700000D01*
D15*
X190000000Y-104700000D02*
X187700000Y-104700000D01*
D16*
X187400000Y-105000000D02*
X187700000Y-104700000D01*
X185900000Y-105000000D02*
X187400000Y-105000000D01*
D15*
X190000000Y-107240000D02*
X187740000Y-107240000D01*
D16*
X186240000Y-107240000D02*
X187740000Y-107240000D01*
X185900000Y-106900000D02*
X186240000Y-107240000D01*
X185900000Y-106500000D02*
X185900000Y-106900000D01*
X190880000Y-99620000D02*
X190000000Y-99620000D01*
X191000000Y-99500000D02*
X190880000Y-99620000D01*
X192500000Y-101000000D02*
X191000000Y-99500000D01*
D15*
X189880000Y-99500000D02*
X190000000Y-99620000D01*
X185500000Y-99500000D02*
X189880000Y-99500000D01*
X192424990Y-100842909D02*
X192424990Y-101000000D01*
X191202081Y-99620000D02*
X192424990Y-100842909D01*
X190000000Y-99620000D02*
X191202081Y-99620000D01*
X192000000Y-109500000D02*
X185000000Y-109500000D01*
X192424990Y-109075010D02*
X192000000Y-109500000D01*
X192424990Y-100842909D02*
X192424990Y-109075010D01*
D16*
X182500000Y-106000000D02*
X181500000Y-106000000D01*
X183000000Y-106500000D02*
X182500000Y-106000000D01*
X183000000Y-107500000D02*
X183000000Y-106500000D01*
X185000000Y-109500000D02*
X183000000Y-107500000D01*
D15*
X189797000Y-96877000D02*
X190000000Y-97080000D01*
X185500000Y-96877000D02*
X189797000Y-96877000D01*
X190000000Y-97080000D02*
X193500000Y-100580000D01*
X193500000Y-100580000D02*
X193500000Y-109500000D01*
X193500000Y-109500000D02*
X192500000Y-110500000D01*
X192500000Y-110500000D02*
X185000000Y-110500000D01*
X185000000Y-110500000D02*
X184500000Y-110500000D01*
D16*
X181500000Y-106900000D02*
X182500000Y-107900000D01*
X181500000Y-106500000D02*
X181500000Y-106900000D01*
X182500000Y-108500000D02*
X184500000Y-110500000D01*
X182500000Y-107900000D02*
X182500000Y-108500000D01*
X176150000Y-106500000D02*
X176150000Y-106600000D01*
X177850000Y-104800000D02*
X176150000Y-106500000D01*
X177850000Y-104400000D02*
X177850000Y-104800000D01*
X184950000Y-105500000D02*
X184500000Y-105050000D01*
X185900000Y-105500000D02*
X184950000Y-105500000D01*
X184500000Y-105050000D02*
X184500000Y-105000000D01*
D15*
X182700000Y-94300000D02*
X185000000Y-92000000D01*
X182700000Y-96877000D02*
X182700000Y-94300000D01*
X185000000Y-92000000D02*
X190000000Y-92000000D01*
X182700000Y-96877000D02*
X182700000Y-99500000D01*
D16*
X181500000Y-104500000D02*
X182450000Y-104500000D01*
X182450000Y-104500000D02*
X183000000Y-105050000D01*
X183000000Y-105050000D02*
X183000000Y-105500000D01*
X183000000Y-105500000D02*
X183500000Y-106000000D01*
X183500000Y-106000000D02*
X185900000Y-106000000D01*
X182700000Y-104250000D02*
X182700000Y-99500000D01*
X182450000Y-104500000D02*
X182700000Y-104250000D01*
X181500000Y-105500000D02*
X180000000Y-105500000D01*
X178900000Y-106600000D02*
X177850000Y-106600000D01*
X180000000Y-105500000D02*
X178900000Y-106600000D01*
X176500000Y-103000000D02*
X176150000Y-103350000D01*
X179000000Y-103000000D02*
X176500000Y-103000000D01*
X179000000Y-104000000D02*
X179000000Y-103000000D01*
X176150000Y-103350000D02*
X176150000Y-104400000D01*
X180000000Y-105000000D02*
X179000000Y-104000000D01*
X181500000Y-105000000D02*
X180000000Y-105000000D01*
D17*
G36*
X194815001Y-111815000D02*
G01*
X174185000Y-111815000D01*
X174185000Y-107300000D01*
X174911928Y-107300000D01*
X174924188Y-107424482D01*
X174960498Y-107544180D01*
X175019463Y-107654494D01*
X175098815Y-107751185D01*
X175195506Y-107830537D01*
X175305820Y-107889502D01*
X175425518Y-107925812D01*
X175550000Y-107938072D01*
X175864250Y-107935000D01*
X176023000Y-107776250D01*
X176023000Y-106727000D01*
X175073750Y-106727000D01*
X174915000Y-106885750D01*
X174911928Y-107300000D01*
X174185000Y-107300000D01*
X174185000Y-103700000D01*
X174911928Y-103700000D01*
X174911928Y-105100000D01*
X174924188Y-105224482D01*
X174960498Y-105344180D01*
X175019463Y-105454494D01*
X175056809Y-105500000D01*
X175019463Y-105545506D01*
X174960498Y-105655820D01*
X174924188Y-105775518D01*
X174911928Y-105900000D01*
X174915000Y-106314250D01*
X175073750Y-106473000D01*
X176023000Y-106473000D01*
X176023000Y-106453000D01*
X176277000Y-106453000D01*
X176277000Y-106473000D01*
X176297000Y-106473000D01*
X176297000Y-106727000D01*
X176277000Y-106727000D01*
X176277000Y-107776250D01*
X176435750Y-107935000D01*
X176750000Y-107938072D01*
X176874482Y-107925812D01*
X176994180Y-107889502D01*
X177000000Y-107886391D01*
X177005820Y-107889502D01*
X177125518Y-107925812D01*
X177250000Y-107938072D01*
X178450000Y-107938072D01*
X178574482Y-107925812D01*
X178694180Y-107889502D01*
X178804494Y-107830537D01*
X178901185Y-107751185D01*
X178980537Y-107654494D01*
X179039502Y-107544180D01*
X179075812Y-107424482D01*
X179084301Y-107338291D01*
X179192247Y-107305546D01*
X179324276Y-107234974D01*
X179440001Y-107140001D01*
X179463804Y-107110998D01*
X180161928Y-106412874D01*
X180161928Y-106650000D01*
X180174188Y-106774482D01*
X180210498Y-106894180D01*
X180269463Y-107004494D01*
X180348815Y-107101185D01*
X180445506Y-107180537D01*
X180555820Y-107239502D01*
X180675518Y-107275812D01*
X180800000Y-107288072D01*
X180845674Y-107288072D01*
X180865026Y-107324276D01*
X180959999Y-107440001D01*
X180989001Y-107463802D01*
X181740000Y-108214802D01*
X181740000Y-108462678D01*
X181736324Y-108500000D01*
X181740000Y-108537322D01*
X181740000Y-108537333D01*
X181750997Y-108648986D01*
X181794454Y-108792247D01*
X181819037Y-108838236D01*
X181865026Y-108924276D01*
X181936201Y-109011002D01*
X181960000Y-109040001D01*
X181988998Y-109063799D01*
X183640484Y-110715286D01*
X183678411Y-110840313D01*
X183760589Y-110994059D01*
X183871183Y-111128817D01*
X184005941Y-111239411D01*
X184159687Y-111321589D01*
X184326510Y-111372195D01*
X184456523Y-111385000D01*
X192456531Y-111385000D01*
X192500000Y-111389281D01*
X192543469Y-111385000D01*
X192543477Y-111385000D01*
X192673490Y-111372195D01*
X192840313Y-111321589D01*
X192994059Y-111239411D01*
X193128817Y-111128817D01*
X193156534Y-111095044D01*
X194095049Y-110156530D01*
X194128817Y-110128817D01*
X194182177Y-110063799D01*
X194239411Y-109994059D01*
X194321589Y-109840314D01*
X194372195Y-109673490D01*
X194372533Y-109670056D01*
X194385000Y-109543477D01*
X194385000Y-109543469D01*
X194389281Y-109500000D01*
X194385000Y-109456531D01*
X194385000Y-100623465D01*
X194389281Y-100579999D01*
X194385000Y-100536533D01*
X194385000Y-100536523D01*
X194372195Y-100406510D01*
X194321589Y-100239687D01*
X194239411Y-100085941D01*
X194205217Y-100044276D01*
X194156532Y-99984953D01*
X194156530Y-99984951D01*
X194128817Y-99951183D01*
X194095050Y-99923471D01*
X191470539Y-97298961D01*
X191485000Y-97226260D01*
X191485000Y-96933740D01*
X191427932Y-96646842D01*
X191315990Y-96376589D01*
X191153475Y-96133368D01*
X190946632Y-95926525D01*
X190764466Y-95804805D01*
X190881355Y-95735178D01*
X191097588Y-95540269D01*
X191271641Y-95306920D01*
X191396825Y-95044099D01*
X191441476Y-94896890D01*
X191320155Y-94667000D01*
X190127000Y-94667000D01*
X190127000Y-94687000D01*
X189873000Y-94687000D01*
X189873000Y-94667000D01*
X188679845Y-94667000D01*
X188558524Y-94896890D01*
X188603175Y-95044099D01*
X188728359Y-95306920D01*
X188902412Y-95540269D01*
X189118645Y-95735178D01*
X189235534Y-95804805D01*
X189053368Y-95926525D01*
X188987893Y-95992000D01*
X186719694Y-95992000D01*
X186695472Y-95912150D01*
X186613405Y-95758614D01*
X186502962Y-95624038D01*
X186368386Y-95513595D01*
X186214850Y-95431528D01*
X186048254Y-95380992D01*
X185875000Y-95363928D01*
X185125000Y-95363928D01*
X184951746Y-95380992D01*
X184785150Y-95431528D01*
X184631614Y-95513595D01*
X184497038Y-95624038D01*
X184386595Y-95758614D01*
X184304528Y-95912150D01*
X184253992Y-96078746D01*
X184236928Y-96252000D01*
X184236928Y-97502000D01*
X184253992Y-97675254D01*
X184304528Y-97841850D01*
X184386595Y-97995386D01*
X184497038Y-98129962D01*
X184568367Y-98188500D01*
X184497038Y-98247038D01*
X184386595Y-98381614D01*
X184304528Y-98535150D01*
X184253992Y-98701746D01*
X184236928Y-98875000D01*
X184236928Y-100125000D01*
X184253992Y-100298254D01*
X184304528Y-100464850D01*
X184386595Y-100618386D01*
X184497038Y-100752962D01*
X184631614Y-100863405D01*
X184785150Y-100945472D01*
X184951746Y-100996008D01*
X185125000Y-101013072D01*
X185875000Y-101013072D01*
X186048254Y-100996008D01*
X186214850Y-100945472D01*
X186368386Y-100863405D01*
X186502962Y-100752962D01*
X186613405Y-100618386D01*
X186695472Y-100464850D01*
X186719694Y-100385000D01*
X188725162Y-100385000D01*
X188846525Y-100566632D01*
X189053368Y-100773475D01*
X189227760Y-100890000D01*
X189053368Y-101006525D01*
X188846525Y-101213368D01*
X188805344Y-101275000D01*
X186796523Y-101275000D01*
X186666510Y-101287805D01*
X186499687Y-101338411D01*
X186345941Y-101420589D01*
X186211183Y-101531183D01*
X186100589Y-101665941D01*
X186018411Y-101819687D01*
X185980484Y-101944715D01*
X185389002Y-102536196D01*
X185359999Y-102559999D01*
X185304871Y-102627174D01*
X185265026Y-102675724D01*
X185204576Y-102788817D01*
X185194454Y-102807754D01*
X185150997Y-102951015D01*
X185140000Y-103062668D01*
X185140000Y-103062678D01*
X185136324Y-103100000D01*
X185140000Y-103137323D01*
X185140000Y-103717837D01*
X185075518Y-103724188D01*
X184955820Y-103760498D01*
X184845506Y-103819463D01*
X184748815Y-103898815D01*
X184669463Y-103995506D01*
X184610498Y-104105820D01*
X184574188Y-104225518D01*
X184561928Y-104350000D01*
X184561928Y-104650000D01*
X184571777Y-104750000D01*
X184561928Y-104850000D01*
X184561928Y-105150000D01*
X184570792Y-105240000D01*
X183814801Y-105240000D01*
X183760000Y-105185199D01*
X183760000Y-105087322D01*
X183763676Y-105049999D01*
X183760000Y-105012676D01*
X183760000Y-105012667D01*
X183749003Y-104901014D01*
X183705546Y-104757753D01*
X183634974Y-104625724D01*
X183593940Y-104575724D01*
X183563799Y-104538996D01*
X183563795Y-104538992D01*
X183540001Y-104509999D01*
X183511009Y-104486206D01*
X183443135Y-104418332D01*
X183449003Y-104398986D01*
X183460000Y-104287333D01*
X183460000Y-104287324D01*
X183463676Y-104250001D01*
X183460000Y-104212678D01*
X183460000Y-100921339D01*
X183568386Y-100863405D01*
X183702962Y-100752962D01*
X183813405Y-100618386D01*
X183895472Y-100464850D01*
X183946008Y-100298254D01*
X183963072Y-100125000D01*
X183963072Y-98875000D01*
X183946008Y-98701746D01*
X183895472Y-98535150D01*
X183813405Y-98381614D01*
X183702962Y-98247038D01*
X183631633Y-98188500D01*
X183702962Y-98129962D01*
X183813405Y-97995386D01*
X183895472Y-97841850D01*
X183946008Y-97675254D01*
X183963072Y-97502000D01*
X183963072Y-96252000D01*
X183946008Y-96078746D01*
X183895472Y-95912150D01*
X183813405Y-95758614D01*
X183702962Y-95624038D01*
X183585000Y-95527230D01*
X183585000Y-94666578D01*
X185366579Y-92885000D01*
X188515375Y-92885000D01*
X188524188Y-92974482D01*
X188560498Y-93094180D01*
X188619463Y-93204494D01*
X188698815Y-93301185D01*
X188795506Y-93380537D01*
X188905820Y-93439502D01*
X188986466Y-93463966D01*
X188902412Y-93539731D01*
X188728359Y-93773080D01*
X188603175Y-94035901D01*
X188558524Y-94183110D01*
X188679845Y-94413000D01*
X189873000Y-94413000D01*
X189873000Y-94393000D01*
X190127000Y-94393000D01*
X190127000Y-94413000D01*
X191320155Y-94413000D01*
X191441476Y-94183110D01*
X191396825Y-94035901D01*
X191271641Y-93773080D01*
X191097588Y-93539731D01*
X191013534Y-93463966D01*
X191094180Y-93439502D01*
X191204494Y-93380537D01*
X191301185Y-93301185D01*
X191380537Y-93204494D01*
X191439502Y-93094180D01*
X191475812Y-92974482D01*
X191488072Y-92850000D01*
X191488072Y-91150000D01*
X191475812Y-91025518D01*
X191439502Y-90905820D01*
X191380537Y-90795506D01*
X191301185Y-90698815D01*
X191204494Y-90619463D01*
X191094180Y-90560498D01*
X190974482Y-90524188D01*
X190850000Y-90511928D01*
X189150000Y-90511928D01*
X189025518Y-90524188D01*
X188905820Y-90560498D01*
X188795506Y-90619463D01*
X188698815Y-90698815D01*
X188619463Y-90795506D01*
X188560498Y-90905820D01*
X188524188Y-91025518D01*
X188515375Y-91115000D01*
X185043465Y-91115000D01*
X184999999Y-91110719D01*
X184956533Y-91115000D01*
X184956523Y-91115000D01*
X184826510Y-91127805D01*
X184659687Y-91178411D01*
X184505941Y-91260589D01*
X184505939Y-91260590D01*
X184505940Y-91260590D01*
X184404953Y-91343468D01*
X184404951Y-91343470D01*
X184371183Y-91371183D01*
X184343470Y-91404951D01*
X182104951Y-93643471D01*
X182071184Y-93671183D01*
X182043471Y-93704951D01*
X182043468Y-93704954D01*
X181960590Y-93805941D01*
X181878412Y-93959687D01*
X181827805Y-94126510D01*
X181810719Y-94300000D01*
X181815001Y-94343479D01*
X181815001Y-95527229D01*
X181697038Y-95624038D01*
X181586595Y-95758614D01*
X181504528Y-95912150D01*
X181453992Y-96078746D01*
X181436928Y-96252000D01*
X181436928Y-97502000D01*
X181453992Y-97675254D01*
X181504528Y-97841850D01*
X181586595Y-97995386D01*
X181697038Y-98129962D01*
X181768367Y-98188500D01*
X181697038Y-98247038D01*
X181586595Y-98381614D01*
X181504528Y-98535150D01*
X181453992Y-98701746D01*
X181436928Y-98875000D01*
X181436928Y-100125000D01*
X181453992Y-100298254D01*
X181504528Y-100464850D01*
X181586595Y-100618386D01*
X181697038Y-100752962D01*
X181831614Y-100863405D01*
X181940001Y-100921339D01*
X181940000Y-103711928D01*
X180800000Y-103711928D01*
X180675518Y-103724188D01*
X180555820Y-103760498D01*
X180445506Y-103819463D01*
X180348815Y-103898815D01*
X180269463Y-103995506D01*
X180210498Y-104105820D01*
X180203544Y-104128743D01*
X179760000Y-103685199D01*
X179760000Y-103037333D01*
X179763677Y-103000000D01*
X179749003Y-102851014D01*
X179705546Y-102707753D01*
X179634974Y-102575724D01*
X179540001Y-102459999D01*
X179424276Y-102365026D01*
X179292247Y-102294454D01*
X179148986Y-102250997D01*
X179037333Y-102240000D01*
X179000000Y-102236323D01*
X178962667Y-102240000D01*
X176537325Y-102240000D01*
X176500000Y-102236324D01*
X176462675Y-102240000D01*
X176462667Y-102240000D01*
X176351014Y-102250997D01*
X176207753Y-102294454D01*
X176075724Y-102365026D01*
X175959999Y-102459999D01*
X175936196Y-102489003D01*
X175639003Y-102786196D01*
X175609999Y-102809999D01*
X175554871Y-102877174D01*
X175515026Y-102925724D01*
X175458116Y-103032195D01*
X175444454Y-103057754D01*
X175439899Y-103072772D01*
X175425518Y-103074188D01*
X175305820Y-103110498D01*
X175195506Y-103169463D01*
X175098815Y-103248815D01*
X175019463Y-103345506D01*
X174960498Y-103455820D01*
X174924188Y-103575518D01*
X174911928Y-103700000D01*
X174185000Y-103700000D01*
X174185000Y-89185000D01*
X194815000Y-89185000D01*
X194815001Y-111815000D01*
G37*
X194815001Y-111815000D02*
X174185000Y-111815000D01*
X174185000Y-107300000D01*
X174911928Y-107300000D01*
X174924188Y-107424482D01*
X174960498Y-107544180D01*
X175019463Y-107654494D01*
X175098815Y-107751185D01*
X175195506Y-107830537D01*
X175305820Y-107889502D01*
X175425518Y-107925812D01*
X175550000Y-107938072D01*
X175864250Y-107935000D01*
X176023000Y-107776250D01*
X176023000Y-106727000D01*
X175073750Y-106727000D01*
X174915000Y-106885750D01*
X174911928Y-107300000D01*
X174185000Y-107300000D01*
X174185000Y-103700000D01*
X174911928Y-103700000D01*
X174911928Y-105100000D01*
X174924188Y-105224482D01*
X174960498Y-105344180D01*
X175019463Y-105454494D01*
X175056809Y-105500000D01*
X175019463Y-105545506D01*
X174960498Y-105655820D01*
X174924188Y-105775518D01*
X174911928Y-105900000D01*
X174915000Y-106314250D01*
X175073750Y-106473000D01*
X176023000Y-106473000D01*
X176023000Y-106453000D01*
X176277000Y-106453000D01*
X176277000Y-106473000D01*
X176297000Y-106473000D01*
X176297000Y-106727000D01*
X176277000Y-106727000D01*
X176277000Y-107776250D01*
X176435750Y-107935000D01*
X176750000Y-107938072D01*
X176874482Y-107925812D01*
X176994180Y-107889502D01*
X177000000Y-107886391D01*
X177005820Y-107889502D01*
X177125518Y-107925812D01*
X177250000Y-107938072D01*
X178450000Y-107938072D01*
X178574482Y-107925812D01*
X178694180Y-107889502D01*
X178804494Y-107830537D01*
X178901185Y-107751185D01*
X178980537Y-107654494D01*
X179039502Y-107544180D01*
X179075812Y-107424482D01*
X179084301Y-107338291D01*
X179192247Y-107305546D01*
X179324276Y-107234974D01*
X179440001Y-107140001D01*
X179463804Y-107110998D01*
X180161928Y-106412874D01*
X180161928Y-106650000D01*
X180174188Y-106774482D01*
X180210498Y-106894180D01*
X180269463Y-107004494D01*
X180348815Y-107101185D01*
X180445506Y-107180537D01*
X180555820Y-107239502D01*
X180675518Y-107275812D01*
X180800000Y-107288072D01*
X180845674Y-107288072D01*
X180865026Y-107324276D01*
X180959999Y-107440001D01*
X180989001Y-107463802D01*
X181740000Y-108214802D01*
X181740000Y-108462678D01*
X181736324Y-108500000D01*
X181740000Y-108537322D01*
X181740000Y-108537333D01*
X181750997Y-108648986D01*
X181794454Y-108792247D01*
X181819037Y-108838236D01*
X181865026Y-108924276D01*
X181936201Y-109011002D01*
X181960000Y-109040001D01*
X181988998Y-109063799D01*
X183640484Y-110715286D01*
X183678411Y-110840313D01*
X183760589Y-110994059D01*
X183871183Y-111128817D01*
X184005941Y-111239411D01*
X184159687Y-111321589D01*
X184326510Y-111372195D01*
X184456523Y-111385000D01*
X192456531Y-111385000D01*
X192500000Y-111389281D01*
X192543469Y-111385000D01*
X192543477Y-111385000D01*
X192673490Y-111372195D01*
X192840313Y-111321589D01*
X192994059Y-111239411D01*
X193128817Y-111128817D01*
X193156534Y-111095044D01*
X194095049Y-110156530D01*
X194128817Y-110128817D01*
X194182177Y-110063799D01*
X194239411Y-109994059D01*
X194321589Y-109840314D01*
X194372195Y-109673490D01*
X194372533Y-109670056D01*
X194385000Y-109543477D01*
X194385000Y-109543469D01*
X194389281Y-109500000D01*
X194385000Y-109456531D01*
X194385000Y-100623465D01*
X194389281Y-100579999D01*
X194385000Y-100536533D01*
X194385000Y-100536523D01*
X194372195Y-100406510D01*
X194321589Y-100239687D01*
X194239411Y-100085941D01*
X194205217Y-100044276D01*
X194156532Y-99984953D01*
X194156530Y-99984951D01*
X194128817Y-99951183D01*
X194095050Y-99923471D01*
X191470539Y-97298961D01*
X191485000Y-97226260D01*
X191485000Y-96933740D01*
X191427932Y-96646842D01*
X191315990Y-96376589D01*
X191153475Y-96133368D01*
X190946632Y-95926525D01*
X190764466Y-95804805D01*
X190881355Y-95735178D01*
X191097588Y-95540269D01*
X191271641Y-95306920D01*
X191396825Y-95044099D01*
X191441476Y-94896890D01*
X191320155Y-94667000D01*
X190127000Y-94667000D01*
X190127000Y-94687000D01*
X189873000Y-94687000D01*
X189873000Y-94667000D01*
X188679845Y-94667000D01*
X188558524Y-94896890D01*
X188603175Y-95044099D01*
X188728359Y-95306920D01*
X188902412Y-95540269D01*
X189118645Y-95735178D01*
X189235534Y-95804805D01*
X189053368Y-95926525D01*
X188987893Y-95992000D01*
X186719694Y-95992000D01*
X186695472Y-95912150D01*
X186613405Y-95758614D01*
X186502962Y-95624038D01*
X186368386Y-95513595D01*
X186214850Y-95431528D01*
X186048254Y-95380992D01*
X185875000Y-95363928D01*
X185125000Y-95363928D01*
X184951746Y-95380992D01*
X184785150Y-95431528D01*
X184631614Y-95513595D01*
X184497038Y-95624038D01*
X184386595Y-95758614D01*
X184304528Y-95912150D01*
X184253992Y-96078746D01*
X184236928Y-96252000D01*
X184236928Y-97502000D01*
X184253992Y-97675254D01*
X184304528Y-97841850D01*
X184386595Y-97995386D01*
X184497038Y-98129962D01*
X184568367Y-98188500D01*
X184497038Y-98247038D01*
X184386595Y-98381614D01*
X184304528Y-98535150D01*
X184253992Y-98701746D01*
X184236928Y-98875000D01*
X184236928Y-100125000D01*
X184253992Y-100298254D01*
X184304528Y-100464850D01*
X184386595Y-100618386D01*
X184497038Y-100752962D01*
X184631614Y-100863405D01*
X184785150Y-100945472D01*
X184951746Y-100996008D01*
X185125000Y-101013072D01*
X185875000Y-101013072D01*
X186048254Y-100996008D01*
X186214850Y-100945472D01*
X186368386Y-100863405D01*
X186502962Y-100752962D01*
X186613405Y-100618386D01*
X186695472Y-100464850D01*
X186719694Y-100385000D01*
X188725162Y-100385000D01*
X188846525Y-100566632D01*
X189053368Y-100773475D01*
X189227760Y-100890000D01*
X189053368Y-101006525D01*
X188846525Y-101213368D01*
X188805344Y-101275000D01*
X186796523Y-101275000D01*
X186666510Y-101287805D01*
X186499687Y-101338411D01*
X186345941Y-101420589D01*
X186211183Y-101531183D01*
X186100589Y-101665941D01*
X186018411Y-101819687D01*
X185980484Y-101944715D01*
X185389002Y-102536196D01*
X185359999Y-102559999D01*
X185304871Y-102627174D01*
X185265026Y-102675724D01*
X185204576Y-102788817D01*
X185194454Y-102807754D01*
X185150997Y-102951015D01*
X185140000Y-103062668D01*
X185140000Y-103062678D01*
X185136324Y-103100000D01*
X185140000Y-103137323D01*
X185140000Y-103717837D01*
X185075518Y-103724188D01*
X184955820Y-103760498D01*
X184845506Y-103819463D01*
X184748815Y-103898815D01*
X184669463Y-103995506D01*
X184610498Y-104105820D01*
X184574188Y-104225518D01*
X184561928Y-104350000D01*
X184561928Y-104650000D01*
X184571777Y-104750000D01*
X184561928Y-104850000D01*
X184561928Y-105150000D01*
X184570792Y-105240000D01*
X183814801Y-105240000D01*
X183760000Y-105185199D01*
X183760000Y-105087322D01*
X183763676Y-105049999D01*
X183760000Y-105012676D01*
X183760000Y-105012667D01*
X183749003Y-104901014D01*
X183705546Y-104757753D01*
X183634974Y-104625724D01*
X183593940Y-104575724D01*
X183563799Y-104538996D01*
X183563795Y-104538992D01*
X183540001Y-104509999D01*
X183511009Y-104486206D01*
X183443135Y-104418332D01*
X183449003Y-104398986D01*
X183460000Y-104287333D01*
X183460000Y-104287324D01*
X183463676Y-104250001D01*
X183460000Y-104212678D01*
X183460000Y-100921339D01*
X183568386Y-100863405D01*
X183702962Y-100752962D01*
X183813405Y-100618386D01*
X183895472Y-100464850D01*
X183946008Y-100298254D01*
X183963072Y-100125000D01*
X183963072Y-98875000D01*
X183946008Y-98701746D01*
X183895472Y-98535150D01*
X183813405Y-98381614D01*
X183702962Y-98247038D01*
X183631633Y-98188500D01*
X183702962Y-98129962D01*
X183813405Y-97995386D01*
X183895472Y-97841850D01*
X183946008Y-97675254D01*
X183963072Y-97502000D01*
X183963072Y-96252000D01*
X183946008Y-96078746D01*
X183895472Y-95912150D01*
X183813405Y-95758614D01*
X183702962Y-95624038D01*
X183585000Y-95527230D01*
X183585000Y-94666578D01*
X185366579Y-92885000D01*
X188515375Y-92885000D01*
X188524188Y-92974482D01*
X188560498Y-93094180D01*
X188619463Y-93204494D01*
X188698815Y-93301185D01*
X188795506Y-93380537D01*
X188905820Y-93439502D01*
X188986466Y-93463966D01*
X188902412Y-93539731D01*
X188728359Y-93773080D01*
X188603175Y-94035901D01*
X188558524Y-94183110D01*
X188679845Y-94413000D01*
X189873000Y-94413000D01*
X189873000Y-94393000D01*
X190127000Y-94393000D01*
X190127000Y-94413000D01*
X191320155Y-94413000D01*
X191441476Y-94183110D01*
X191396825Y-94035901D01*
X191271641Y-93773080D01*
X191097588Y-93539731D01*
X191013534Y-93463966D01*
X191094180Y-93439502D01*
X191204494Y-93380537D01*
X191301185Y-93301185D01*
X191380537Y-93204494D01*
X191439502Y-93094180D01*
X191475812Y-92974482D01*
X191488072Y-92850000D01*
X191488072Y-91150000D01*
X191475812Y-91025518D01*
X191439502Y-90905820D01*
X191380537Y-90795506D01*
X191301185Y-90698815D01*
X191204494Y-90619463D01*
X191094180Y-90560498D01*
X190974482Y-90524188D01*
X190850000Y-90511928D01*
X189150000Y-90511928D01*
X189025518Y-90524188D01*
X188905820Y-90560498D01*
X188795506Y-90619463D01*
X188698815Y-90698815D01*
X188619463Y-90795506D01*
X188560498Y-90905820D01*
X188524188Y-91025518D01*
X188515375Y-91115000D01*
X185043465Y-91115000D01*
X184999999Y-91110719D01*
X184956533Y-91115000D01*
X184956523Y-91115000D01*
X184826510Y-91127805D01*
X184659687Y-91178411D01*
X184505941Y-91260589D01*
X184505939Y-91260590D01*
X184505940Y-91260590D01*
X184404953Y-91343468D01*
X184404951Y-91343470D01*
X184371183Y-91371183D01*
X184343470Y-91404951D01*
X182104951Y-93643471D01*
X182071184Y-93671183D01*
X182043471Y-93704951D01*
X182043468Y-93704954D01*
X181960590Y-93805941D01*
X181878412Y-93959687D01*
X181827805Y-94126510D01*
X181810719Y-94300000D01*
X181815001Y-94343479D01*
X181815001Y-95527229D01*
X181697038Y-95624038D01*
X181586595Y-95758614D01*
X181504528Y-95912150D01*
X181453992Y-96078746D01*
X181436928Y-96252000D01*
X181436928Y-97502000D01*
X181453992Y-97675254D01*
X181504528Y-97841850D01*
X181586595Y-97995386D01*
X181697038Y-98129962D01*
X181768367Y-98188500D01*
X181697038Y-98247038D01*
X181586595Y-98381614D01*
X181504528Y-98535150D01*
X181453992Y-98701746D01*
X181436928Y-98875000D01*
X181436928Y-100125000D01*
X181453992Y-100298254D01*
X181504528Y-100464850D01*
X181586595Y-100618386D01*
X181697038Y-100752962D01*
X181831614Y-100863405D01*
X181940001Y-100921339D01*
X181940000Y-103711928D01*
X180800000Y-103711928D01*
X180675518Y-103724188D01*
X180555820Y-103760498D01*
X180445506Y-103819463D01*
X180348815Y-103898815D01*
X180269463Y-103995506D01*
X180210498Y-104105820D01*
X180203544Y-104128743D01*
X179760000Y-103685199D01*
X179760000Y-103037333D01*
X179763677Y-103000000D01*
X179749003Y-102851014D01*
X179705546Y-102707753D01*
X179634974Y-102575724D01*
X179540001Y-102459999D01*
X179424276Y-102365026D01*
X179292247Y-102294454D01*
X179148986Y-102250997D01*
X179037333Y-102240000D01*
X179000000Y-102236323D01*
X178962667Y-102240000D01*
X176537325Y-102240000D01*
X176500000Y-102236324D01*
X176462675Y-102240000D01*
X176462667Y-102240000D01*
X176351014Y-102250997D01*
X176207753Y-102294454D01*
X176075724Y-102365026D01*
X175959999Y-102459999D01*
X175936196Y-102489003D01*
X175639003Y-102786196D01*
X175609999Y-102809999D01*
X175554871Y-102877174D01*
X175515026Y-102925724D01*
X175458116Y-103032195D01*
X175444454Y-103057754D01*
X175439899Y-103072772D01*
X175425518Y-103074188D01*
X175305820Y-103110498D01*
X175195506Y-103169463D01*
X175098815Y-103248815D01*
X175019463Y-103345506D01*
X174960498Y-103455820D01*
X174924188Y-103575518D01*
X174911928Y-103700000D01*
X174185000Y-103700000D01*
X174185000Y-89185000D01*
X194815000Y-89185000D01*
X194815001Y-111815000D01*
G36*
X177977000Y-104273000D02*
G01*
X177997000Y-104273000D01*
X177997000Y-104527000D01*
X177977000Y-104527000D01*
X177977000Y-104547000D01*
X177723000Y-104547000D01*
X177723000Y-104527000D01*
X177703000Y-104527000D01*
X177703000Y-104273000D01*
X177723000Y-104273000D01*
X177723000Y-104253000D01*
X177977000Y-104253000D01*
X177977000Y-104273000D01*
G37*
X177977000Y-104273000D02*
X177997000Y-104273000D01*
X177997000Y-104527000D01*
X177977000Y-104527000D01*
X177977000Y-104547000D01*
X177723000Y-104547000D01*
X177723000Y-104527000D01*
X177703000Y-104527000D01*
X177703000Y-104273000D01*
X177723000Y-104273000D01*
X177723000Y-104253000D01*
X177977000Y-104253000D01*
X177977000Y-104273000D01*
M02*
