G04 #@! TF.GenerationSoftware,KiCad,Pcbnew,(5.1.5)-3*
G04 #@! TF.CreationDate,2022-11-09T15:50:47-05:00*
G04 #@! TF.ProjectId,si5351,73693533-3531-42e6-9b69-6361645f7063,rev?*
G04 #@! TF.SameCoordinates,Original*
G04 #@! TF.FileFunction,Soldermask,Top*
G04 #@! TF.FilePolarity,Negative*
%FSLAX46Y46*%
G04 Gerber Fmt 4.6, Leading zero omitted, Abs format (unit mm)*
G04 Created by KiCad (PCBNEW (5.1.5)-3) date 2022-11-09 15:50:47*
%MOMM*%
%LPD*%
G04 APERTURE LIST*
%ADD10C,0.100000*%
G04 APERTURE END LIST*
D10*
G36*
X190113512Y-106343927D02*
G01*
X190262812Y-106373624D01*
X190426784Y-106441544D01*
X190574354Y-106540147D01*
X190699853Y-106665646D01*
X190798456Y-106813216D01*
X190866376Y-106977188D01*
X190901000Y-107151259D01*
X190901000Y-107328741D01*
X190866376Y-107502812D01*
X190798456Y-107666784D01*
X190699853Y-107814354D01*
X190574354Y-107939853D01*
X190426784Y-108038456D01*
X190262812Y-108106376D01*
X190113512Y-108136073D01*
X190088742Y-108141000D01*
X189911258Y-108141000D01*
X189886488Y-108136073D01*
X189737188Y-108106376D01*
X189573216Y-108038456D01*
X189425646Y-107939853D01*
X189300147Y-107814354D01*
X189201544Y-107666784D01*
X189133624Y-107502812D01*
X189099000Y-107328741D01*
X189099000Y-107151259D01*
X189133624Y-106977188D01*
X189201544Y-106813216D01*
X189300147Y-106665646D01*
X189425646Y-106540147D01*
X189573216Y-106441544D01*
X189737188Y-106373624D01*
X189886488Y-106343927D01*
X189911258Y-106339000D01*
X190088742Y-106339000D01*
X190113512Y-106343927D01*
G37*
G36*
X178501000Y-107351000D02*
G01*
X177199000Y-107351000D01*
X177199000Y-105849000D01*
X178501000Y-105849000D01*
X178501000Y-107351000D01*
G37*
G36*
X176801000Y-107351000D02*
G01*
X175499000Y-107351000D01*
X175499000Y-105849000D01*
X176801000Y-105849000D01*
X176801000Y-107351000D01*
G37*
G36*
X182251000Y-106701000D02*
G01*
X180749000Y-106701000D01*
X180749000Y-104299000D01*
X182251000Y-104299000D01*
X182251000Y-106701000D01*
G37*
G36*
X186651000Y-106701000D02*
G01*
X185149000Y-106701000D01*
X185149000Y-104299000D01*
X186651000Y-104299000D01*
X186651000Y-106701000D01*
G37*
G36*
X190113512Y-103803927D02*
G01*
X190262812Y-103833624D01*
X190426784Y-103901544D01*
X190574354Y-104000147D01*
X190699853Y-104125646D01*
X190798456Y-104273216D01*
X190866376Y-104437188D01*
X190896073Y-104586488D01*
X190901000Y-104611258D01*
X190901000Y-104788742D01*
X190896073Y-104813512D01*
X190866376Y-104962812D01*
X190798456Y-105126784D01*
X190699853Y-105274354D01*
X190574354Y-105399853D01*
X190426784Y-105498456D01*
X190262812Y-105566376D01*
X190113512Y-105596073D01*
X190088742Y-105601000D01*
X189911258Y-105601000D01*
X189886488Y-105596073D01*
X189737188Y-105566376D01*
X189573216Y-105498456D01*
X189425646Y-105399853D01*
X189300147Y-105274354D01*
X189201544Y-105126784D01*
X189133624Y-104962812D01*
X189103927Y-104813512D01*
X189099000Y-104788742D01*
X189099000Y-104611258D01*
X189103927Y-104586488D01*
X189133624Y-104437188D01*
X189201544Y-104273216D01*
X189300147Y-104125646D01*
X189425646Y-104000147D01*
X189573216Y-103901544D01*
X189737188Y-103833624D01*
X189886488Y-103803927D01*
X189911258Y-103799000D01*
X190088742Y-103799000D01*
X190113512Y-103803927D01*
G37*
G36*
X176801000Y-105151000D02*
G01*
X175499000Y-105151000D01*
X175499000Y-103649000D01*
X176801000Y-103649000D01*
X176801000Y-105151000D01*
G37*
G36*
X178501000Y-105151000D02*
G01*
X177199000Y-105151000D01*
X177199000Y-103649000D01*
X178501000Y-103649000D01*
X178501000Y-105151000D01*
G37*
G36*
X190113512Y-101263927D02*
G01*
X190262812Y-101293624D01*
X190426784Y-101361544D01*
X190574354Y-101460147D01*
X190699853Y-101585646D01*
X190798456Y-101733216D01*
X190866376Y-101897188D01*
X190901000Y-102071259D01*
X190901000Y-102248741D01*
X190866376Y-102422812D01*
X190798456Y-102586784D01*
X190699853Y-102734354D01*
X190574354Y-102859853D01*
X190426784Y-102958456D01*
X190262812Y-103026376D01*
X190113512Y-103056073D01*
X190088742Y-103061000D01*
X189911258Y-103061000D01*
X189886488Y-103056073D01*
X189737188Y-103026376D01*
X189573216Y-102958456D01*
X189425646Y-102859853D01*
X189300147Y-102734354D01*
X189201544Y-102586784D01*
X189133624Y-102422812D01*
X189099000Y-102248741D01*
X189099000Y-102071259D01*
X189133624Y-101897188D01*
X189201544Y-101733216D01*
X189300147Y-101585646D01*
X189425646Y-101460147D01*
X189573216Y-101361544D01*
X189737188Y-101293624D01*
X189886488Y-101263927D01*
X189911258Y-101259000D01*
X190088742Y-101259000D01*
X190113512Y-101263927D01*
G37*
G36*
X190113512Y-98723927D02*
G01*
X190262812Y-98753624D01*
X190426784Y-98821544D01*
X190574354Y-98920147D01*
X190699853Y-99045646D01*
X190798456Y-99193216D01*
X190866376Y-99357188D01*
X190901000Y-99531259D01*
X190901000Y-99708741D01*
X190866376Y-99882812D01*
X190798456Y-100046784D01*
X190699853Y-100194354D01*
X190574354Y-100319853D01*
X190426784Y-100418456D01*
X190262812Y-100486376D01*
X190113512Y-100516073D01*
X190088742Y-100521000D01*
X189911258Y-100521000D01*
X189886488Y-100516073D01*
X189737188Y-100486376D01*
X189573216Y-100418456D01*
X189425646Y-100319853D01*
X189300147Y-100194354D01*
X189201544Y-100046784D01*
X189133624Y-99882812D01*
X189099000Y-99708741D01*
X189099000Y-99531259D01*
X189133624Y-99357188D01*
X189201544Y-99193216D01*
X189300147Y-99045646D01*
X189425646Y-98920147D01*
X189573216Y-98821544D01*
X189737188Y-98753624D01*
X189886488Y-98723927D01*
X189911258Y-98719000D01*
X190088742Y-98719000D01*
X190113512Y-98723927D01*
G37*
G36*
X183218604Y-98578347D02*
G01*
X183255144Y-98589432D01*
X183288821Y-98607433D01*
X183318341Y-98631659D01*
X183342567Y-98661179D01*
X183360568Y-98694856D01*
X183371653Y-98731396D01*
X183376000Y-98775538D01*
X183376000Y-100224462D01*
X183371653Y-100268604D01*
X183360568Y-100305144D01*
X183342567Y-100338821D01*
X183318341Y-100368341D01*
X183288821Y-100392567D01*
X183255144Y-100410568D01*
X183218604Y-100421653D01*
X183174462Y-100426000D01*
X182225538Y-100426000D01*
X182181396Y-100421653D01*
X182144856Y-100410568D01*
X182111179Y-100392567D01*
X182081659Y-100368341D01*
X182057433Y-100338821D01*
X182039432Y-100305144D01*
X182028347Y-100268604D01*
X182024000Y-100224462D01*
X182024000Y-98775538D01*
X182028347Y-98731396D01*
X182039432Y-98694856D01*
X182057433Y-98661179D01*
X182081659Y-98631659D01*
X182111179Y-98607433D01*
X182144856Y-98589432D01*
X182181396Y-98578347D01*
X182225538Y-98574000D01*
X183174462Y-98574000D01*
X183218604Y-98578347D01*
G37*
G36*
X186018604Y-98578347D02*
G01*
X186055144Y-98589432D01*
X186088821Y-98607433D01*
X186118341Y-98631659D01*
X186142567Y-98661179D01*
X186160568Y-98694856D01*
X186171653Y-98731396D01*
X186176000Y-98775538D01*
X186176000Y-100224462D01*
X186171653Y-100268604D01*
X186160568Y-100305144D01*
X186142567Y-100338821D01*
X186118341Y-100368341D01*
X186088821Y-100392567D01*
X186055144Y-100410568D01*
X186018604Y-100421653D01*
X185974462Y-100426000D01*
X185025538Y-100426000D01*
X184981396Y-100421653D01*
X184944856Y-100410568D01*
X184911179Y-100392567D01*
X184881659Y-100368341D01*
X184857433Y-100338821D01*
X184839432Y-100305144D01*
X184828347Y-100268604D01*
X184824000Y-100224462D01*
X184824000Y-98775538D01*
X184828347Y-98731396D01*
X184839432Y-98694856D01*
X184857433Y-98661179D01*
X184881659Y-98631659D01*
X184911179Y-98607433D01*
X184944856Y-98589432D01*
X184981396Y-98578347D01*
X185025538Y-98574000D01*
X185974462Y-98574000D01*
X186018604Y-98578347D01*
G37*
G36*
X190113512Y-96183927D02*
G01*
X190262812Y-96213624D01*
X190426784Y-96281544D01*
X190574354Y-96380147D01*
X190699853Y-96505646D01*
X190798456Y-96653216D01*
X190866376Y-96817188D01*
X190901000Y-96991259D01*
X190901000Y-97168741D01*
X190866376Y-97342812D01*
X190798456Y-97506784D01*
X190699853Y-97654354D01*
X190574354Y-97779853D01*
X190426784Y-97878456D01*
X190262812Y-97946376D01*
X190113512Y-97976073D01*
X190088742Y-97981000D01*
X189911258Y-97981000D01*
X189886488Y-97976073D01*
X189737188Y-97946376D01*
X189573216Y-97878456D01*
X189425646Y-97779853D01*
X189300147Y-97654354D01*
X189201544Y-97506784D01*
X189133624Y-97342812D01*
X189099000Y-97168741D01*
X189099000Y-96991259D01*
X189133624Y-96817188D01*
X189201544Y-96653216D01*
X189300147Y-96505646D01*
X189425646Y-96380147D01*
X189573216Y-96281544D01*
X189737188Y-96213624D01*
X189886488Y-96183927D01*
X189911258Y-96179000D01*
X190088742Y-96179000D01*
X190113512Y-96183927D01*
G37*
G36*
X183218604Y-95955347D02*
G01*
X183255144Y-95966432D01*
X183288821Y-95984433D01*
X183318341Y-96008659D01*
X183342567Y-96038179D01*
X183360568Y-96071856D01*
X183371653Y-96108396D01*
X183376000Y-96152538D01*
X183376000Y-97601462D01*
X183371653Y-97645604D01*
X183360568Y-97682144D01*
X183342567Y-97715821D01*
X183318341Y-97745341D01*
X183288821Y-97769567D01*
X183255144Y-97787568D01*
X183218604Y-97798653D01*
X183174462Y-97803000D01*
X182225538Y-97803000D01*
X182181396Y-97798653D01*
X182144856Y-97787568D01*
X182111179Y-97769567D01*
X182081659Y-97745341D01*
X182057433Y-97715821D01*
X182039432Y-97682144D01*
X182028347Y-97645604D01*
X182024000Y-97601462D01*
X182024000Y-96152538D01*
X182028347Y-96108396D01*
X182039432Y-96071856D01*
X182057433Y-96038179D01*
X182081659Y-96008659D01*
X182111179Y-95984433D01*
X182144856Y-95966432D01*
X182181396Y-95955347D01*
X182225538Y-95951000D01*
X183174462Y-95951000D01*
X183218604Y-95955347D01*
G37*
G36*
X186018604Y-95955347D02*
G01*
X186055144Y-95966432D01*
X186088821Y-95984433D01*
X186118341Y-96008659D01*
X186142567Y-96038179D01*
X186160568Y-96071856D01*
X186171653Y-96108396D01*
X186176000Y-96152538D01*
X186176000Y-97601462D01*
X186171653Y-97645604D01*
X186160568Y-97682144D01*
X186142567Y-97715821D01*
X186118341Y-97745341D01*
X186088821Y-97769567D01*
X186055144Y-97787568D01*
X186018604Y-97798653D01*
X185974462Y-97803000D01*
X185025538Y-97803000D01*
X184981396Y-97798653D01*
X184944856Y-97787568D01*
X184911179Y-97769567D01*
X184881659Y-97745341D01*
X184857433Y-97715821D01*
X184839432Y-97682144D01*
X184828347Y-97645604D01*
X184824000Y-97601462D01*
X184824000Y-96152538D01*
X184828347Y-96108396D01*
X184839432Y-96071856D01*
X184857433Y-96038179D01*
X184881659Y-96008659D01*
X184911179Y-95984433D01*
X184944856Y-95966432D01*
X184981396Y-95955347D01*
X185025538Y-95951000D01*
X185974462Y-95951000D01*
X186018604Y-95955347D01*
G37*
G36*
X190113512Y-93643927D02*
G01*
X190262812Y-93673624D01*
X190426784Y-93741544D01*
X190574354Y-93840147D01*
X190699853Y-93965646D01*
X190798456Y-94113216D01*
X190866376Y-94277188D01*
X190901000Y-94451259D01*
X190901000Y-94628741D01*
X190866376Y-94802812D01*
X190798456Y-94966784D01*
X190699853Y-95114354D01*
X190574354Y-95239853D01*
X190426784Y-95338456D01*
X190262812Y-95406376D01*
X190113512Y-95436073D01*
X190088742Y-95441000D01*
X189911258Y-95441000D01*
X189886488Y-95436073D01*
X189737188Y-95406376D01*
X189573216Y-95338456D01*
X189425646Y-95239853D01*
X189300147Y-95114354D01*
X189201544Y-94966784D01*
X189133624Y-94802812D01*
X189099000Y-94628741D01*
X189099000Y-94451259D01*
X189133624Y-94277188D01*
X189201544Y-94113216D01*
X189300147Y-93965646D01*
X189425646Y-93840147D01*
X189573216Y-93741544D01*
X189737188Y-93673624D01*
X189886488Y-93643927D01*
X189911258Y-93639000D01*
X190088742Y-93639000D01*
X190113512Y-93643927D01*
G37*
G36*
X185068604Y-92928347D02*
G01*
X185105144Y-92939432D01*
X185138821Y-92957433D01*
X185168341Y-92981659D01*
X185192567Y-93011179D01*
X185210568Y-93044856D01*
X185221653Y-93081396D01*
X185226000Y-93125538D01*
X185226000Y-94074462D01*
X185221653Y-94118604D01*
X185210568Y-94155144D01*
X185192567Y-94188821D01*
X185168341Y-94218341D01*
X185138821Y-94242567D01*
X185105144Y-94260568D01*
X185068604Y-94271653D01*
X185024462Y-94276000D01*
X183575538Y-94276000D01*
X183531396Y-94271653D01*
X183494856Y-94260568D01*
X183461179Y-94242567D01*
X183431659Y-94218341D01*
X183407433Y-94188821D01*
X183389432Y-94155144D01*
X183378347Y-94118604D01*
X183374000Y-94074462D01*
X183374000Y-93125538D01*
X183378347Y-93081396D01*
X183389432Y-93044856D01*
X183407433Y-93011179D01*
X183431659Y-92981659D01*
X183461179Y-92957433D01*
X183494856Y-92939432D01*
X183531396Y-92928347D01*
X183575538Y-92924000D01*
X185024462Y-92924000D01*
X185068604Y-92928347D01*
G37*
G36*
X181768604Y-92928347D02*
G01*
X181805144Y-92939432D01*
X181838821Y-92957433D01*
X181868341Y-92981659D01*
X181892567Y-93011179D01*
X181910568Y-93044856D01*
X181921653Y-93081396D01*
X181926000Y-93125538D01*
X181926000Y-94074462D01*
X181921653Y-94118604D01*
X181910568Y-94155144D01*
X181892567Y-94188821D01*
X181868341Y-94218341D01*
X181838821Y-94242567D01*
X181805144Y-94260568D01*
X181768604Y-94271653D01*
X181724462Y-94276000D01*
X180275538Y-94276000D01*
X180231396Y-94271653D01*
X180194856Y-94260568D01*
X180161179Y-94242567D01*
X180131659Y-94218341D01*
X180107433Y-94188821D01*
X180089432Y-94155144D01*
X180078347Y-94118604D01*
X180074000Y-94074462D01*
X180074000Y-93125538D01*
X180078347Y-93081396D01*
X180089432Y-93044856D01*
X180107433Y-93011179D01*
X180131659Y-92981659D01*
X180161179Y-92957433D01*
X180194856Y-92939432D01*
X180231396Y-92928347D01*
X180275538Y-92924000D01*
X181724462Y-92924000D01*
X181768604Y-92928347D01*
G37*
G36*
X190901000Y-92901000D02*
G01*
X189099000Y-92901000D01*
X189099000Y-91099000D01*
X190901000Y-91099000D01*
X190901000Y-92901000D01*
G37*
G36*
X185068604Y-90128347D02*
G01*
X185105144Y-90139432D01*
X185138821Y-90157433D01*
X185168341Y-90181659D01*
X185192567Y-90211179D01*
X185210568Y-90244856D01*
X185221653Y-90281396D01*
X185226000Y-90325538D01*
X185226000Y-91274462D01*
X185221653Y-91318604D01*
X185210568Y-91355144D01*
X185192567Y-91388821D01*
X185168341Y-91418341D01*
X185138821Y-91442567D01*
X185105144Y-91460568D01*
X185068604Y-91471653D01*
X185024462Y-91476000D01*
X183575538Y-91476000D01*
X183531396Y-91471653D01*
X183494856Y-91460568D01*
X183461179Y-91442567D01*
X183431659Y-91418341D01*
X183407433Y-91388821D01*
X183389432Y-91355144D01*
X183378347Y-91318604D01*
X183374000Y-91274462D01*
X183374000Y-90325538D01*
X183378347Y-90281396D01*
X183389432Y-90244856D01*
X183407433Y-90211179D01*
X183431659Y-90181659D01*
X183461179Y-90157433D01*
X183494856Y-90139432D01*
X183531396Y-90128347D01*
X183575538Y-90124000D01*
X185024462Y-90124000D01*
X185068604Y-90128347D01*
G37*
G36*
X181768604Y-90128347D02*
G01*
X181805144Y-90139432D01*
X181838821Y-90157433D01*
X181868341Y-90181659D01*
X181892567Y-90211179D01*
X181910568Y-90244856D01*
X181921653Y-90281396D01*
X181926000Y-90325538D01*
X181926000Y-91274462D01*
X181921653Y-91318604D01*
X181910568Y-91355144D01*
X181892567Y-91388821D01*
X181868341Y-91418341D01*
X181838821Y-91442567D01*
X181805144Y-91460568D01*
X181768604Y-91471653D01*
X181724462Y-91476000D01*
X180275538Y-91476000D01*
X180231396Y-91471653D01*
X180194856Y-91460568D01*
X180161179Y-91442567D01*
X180131659Y-91418341D01*
X180107433Y-91388821D01*
X180089432Y-91355144D01*
X180078347Y-91318604D01*
X180074000Y-91274462D01*
X180074000Y-90325538D01*
X180078347Y-90281396D01*
X180089432Y-90244856D01*
X180107433Y-90211179D01*
X180131659Y-90181659D01*
X180161179Y-90157433D01*
X180194856Y-90139432D01*
X180231396Y-90128347D01*
X180275538Y-90124000D01*
X181724462Y-90124000D01*
X181768604Y-90128347D01*
G37*
M02*
